<?xml version="1.0" encoding="UTF-8" standalone="no"?>
<svg
   id="Layer_1"
   data-name="Layer 1"
   viewBox="0 0 122.67 86.57"
   version="1.1"
   sodipodi:docname="Ctrl-arm-02.svg"
   inkscape:version="1.4 (e7c3feb1, 2024-10-09)"
   xmlns:inkscape="http://www.inkscape.org/namespaces/inkscape"
   xmlns:sodipodi="http://sodipodi.sourceforge.net/DTD/sodipodi-0.dtd"
   xmlns="http://www.w3.org/2000/svg"
   xmlns:svg="http://www.w3.org/2000/svg">
  <sodipodi:namedview
     id="namedview13"
     pagecolor="#505050"
     bordercolor="#eeeeee"
     borderopacity="1"
     inkscape:showpageshadow="0"
     inkscape:pageopacity="0"
     inkscape:pagecheckerboard="0"
     inkscape:deskcolor="#505050"
     inkscape:zoom="2.9155938"
     inkscape:cx="28.639106"
     inkscape:cy="91.40505"
     inkscape:window-width="1288"
     inkscape:window-height="916"
     inkscape:window-x="0"
     inkscape:window-y="38"
     inkscape:window-maximized="0"
     inkscape:current-layer="Layer_1" />
  <defs
     id="defs1">
    <style
       id="style1">
      .cls-1 {
        fill: #f6f6f6;
      }

      .cls-2 {
        fill: #dd1d00;
      }

      .cls-3 {
        fill: #fff;
      }

      .cls-4 {
        fill: #ddca00;
      }

      .cls-5 {
        fill: #dd8700;
      }
    </style>
  </defs>
  <circle
     cx="49.6"
     cy="70"
     r="14.24"
     id="circle1" />
  <rect
     x="35.48"
     y="52.73"
     width="4.15"
     height="12.39"
     transform="translate(-24.43 26.67) rotate(-30)"
     id="rect1" />
  <rect
     x="53.34"
     y="52.85"
     width="4.12"
     height="8.56"
     transform="translate(-21.88 38.11) rotate(-32.05)"
     id="rect2" />
  <circle
     class="cls-3"
     cx="49.6"
     cy="70"
     r="10.15"
     id="circle2" />
  <rect
     x="96.73"
     y="59.85"
     width="23.24"
     height="23.24"
     id="rect3" />
  <rect
     class="cls-1"
     x="100.34"
     y="63.46"
     width="16.01"
     height="16.01"
     id="rect4" />
  <g
     id="g7">
    <path
       d="M13.88,21.79c-1.76,0-3.32-.41-4.66-1.23-1.34-.82-2.39-1.99-3.14-3.52s-1.13-3.35-1.13-5.46.37-3.91,1.12-5.45c.75-1.53,1.79-2.72,3.13-3.56,1.34-.84,2.91-1.25,4.72-1.25,2.43,0,4.31.61,5.65,1.82,1.34,1.21,2.22,2.9,2.62,5.05l-3.12.17c-.26-1.34-.81-2.39-1.65-3.16s-2.01-1.14-3.5-1.14c-1.19,0-2.23.3-3.1.91s-1.55,1.47-2.04,2.59c-.49,1.12-.73,2.46-.73,4.03s.24,2.91.73,4.03c.49,1.12,1.17,1.98,2.05,2.57s1.9.88,3.06.88c1.58,0,2.81-.42,3.68-1.25.87-.84,1.42-1.99,1.64-3.46l3.12.16c-.24,1.49-.72,2.78-1.43,3.86-.72,1.09-1.66,1.93-2.84,2.52-1.18.6-2.56.9-4.16.9Z"
       id="path4" />
    <path
       d="M24.5,9.07v-2.4h9.05v2.4h-9.05ZM30.81,21.34c-1.4,0-2.43-.32-3.09-.97-.66-.64-.99-1.65-.99-3.01V3.22h2.92v13.93c0,.68.15,1.15.44,1.41s.75.39,1.35.39h2.1v2.4h-2.73Z"
       id="path5" />
    <path
       d="M36.63,21.34V6.67h2.68l.11,3.89-.25-.08c.2-1.32.61-2.29,1.23-2.9.62-.61,1.45-.91,2.5-.91h1.41v2.62h-1.41c-.74,0-1.35.12-1.85.36-.5.24-.87.61-1.12,1.1-.25.5-.37,1.14-.37,1.93v8.66h-2.92Z"
       id="path6" />
    <path
       d="M49.93,21.34c-.96,0-1.73-.25-2.32-.75-.59-.5-.88-1.29-.88-2.37V1.76h2.92v16.19c0,.33.09.58.26.75.18.16.43.25.76.25h1.16v2.4h-1.9Z"
       id="path7" />
  </g>
  <g
     id="g10">
    <path
       d="M2.36,54.6l11.23-31.13h6.01l11.23,31.13h-5.04l-2.85-8.11h-12.72l-2.81,8.11H2.36ZM11.7,42.19h9.78l-4.91-14.21-4.87,14.21Z"
       id="path8" />
    <path
       d="M32.66,54.6v-31.13h12.41c2.22,0,4.14.38,5.74,1.14,1.61.76,2.85,1.84,3.73,3.24.88,1.4,1.32,3.07,1.32,5,0,1.4-.31,2.66-.94,3.77s-1.46,2-2.5,2.65c-1.04.66-2.14,1.03-3.31,1.12l-.22-.39c1.96,0,3.48.45,4.56,1.34,1.08.89,1.71,2.29,1.89,4.19l.83,9.08h-4.78l-.75-8.46c-.09-1.26-.51-2.19-1.27-2.78-.76-.6-2-.9-3.73-.9h-8.24v12.15h-4.74ZM37.39,38.11h7.76c1.78,0,3.19-.44,4.23-1.34,1.04-.89,1.56-2.16,1.56-3.79s-.53-2.94-1.58-3.84c-1.05-.89-2.59-1.34-4.61-1.34h-7.37v10.3Z"
       id="path9" />
    <path
       d="M60.63,54.6v-31.13h6.49l9.25,25.57,9.25-25.57h6.49v31.13h-4.73v-22.8l-8.38,22.76h-5.26l-8.38-22.76v22.8h-4.74Z"
       id="path10" />
  </g>
  <circle
     class="cls-2"
     cx="57.53"
     cy="3.8"
     r="2.48"
     id="circle10" />
  <circle
     class="cls-4"
     cx="57.53"
     cy="18.09"
     r="2.48"
     id="circle11" />
  <circle
     class="cls-5"
     cx="57.53"
     cy="10.95"
     r="2.48"
     id="circle12" />
  <rect
     x="75.87"
     y="58.95"
     width="4.12"
     height="39.07"
     transform="translate(-.56 156.42) rotate(-90)"
     id="rect12" />
  <rect
     x="76.89"
     y="45.63"
     width="4.12"
     height="37.83"
     transform="translate(14.4 143.49) rotate(-90)"
     id="rect13" />
  <rect
     style="fill:#ffffff;stroke:#ffffff;stroke-width:1.07696;stroke-opacity:0;-inkscape-stroke:none;paint-order:stroke fill markers"
     id="rect14"
     width="35.719414"
     height="9.7530394"
     x="61.702106"
     y="66.638474" />
  <path
     style="fill:#ffffff;stroke:#ffffff;stroke-opacity:0;-inkscape-stroke:none;paint-order:stroke fill markers"
     d="m 63.750988,66.599998 c -0.113847,-0.0011 -0.228099,0.0013 -0.341798,3e-6 0.113933,1.06e-4 0.227865,1.75e-4 0.341798,-3e-6"
     id="path17" />
  <circle
     cx="49.599998"
     cy="70"
     r="14.24"
     id="circle1-1" />
  <circle
     class="cls-3"
     cx="49.599998"
     cy="70"
     r="10.15"
     id="circle2-1"
     style="fill:#ffffff" />
</svg>
