<?xml version="1.0" encoding="UTF-8"?>
<svg xmlns="http://www.w3.org/2000/svg" xmlns:xlink="http://www.w3.org/1999/xlink" width="60px" height="128px" viewBox="0 0 60 129" version="1.1">
<g id="surface1">
<path style=" stroke:none;fill-rule:nonzero;fill:rgb(0%,40.784314%,29.019609%);fill-opacity:1;" d="M 41.503906 14.378906 C 36.066406 7.953125 31.382812 1.429688 30.425781 0.0742188 C 30.328125 -0.0234375 30.175781 -0.0234375 30.074219 0.0742188 C 29.117188 1.429688 24.433594 7.953125 18.996094 14.378906 C -27.679688 73.644531 26.347656 113.644531 26.347656 113.644531 L 26.800781 113.945312 C 27.203125 120.117188 28.210938 129 28.210938 129 L 32.238281 129 C 32.238281 129 33.246094 120.167969 33.648438 113.945312 L 34.101562 113.59375 C 34.152344 113.59375 88.179688 73.644531 41.503906 14.378906 Z M 30.226562 112.738281 C 30.226562 112.738281 27.808594 110.683594 27.152344 109.628906 L 27.152344 109.527344 L 30.074219 44.992188 C 30.074219 44.789062 30.375 44.789062 30.375 44.992188 L 33.296875 109.527344 L 33.296875 109.628906 C 32.640625 110.683594 30.226562 112.738281 30.226562 112.738281 Z M 30.226562 112.738281 "/>
</g>
</svg>
