<?xml version="1.0" encoding="UTF-8"?>
<svg data-bbox="81.48 45.72 861.05 932.56" viewBox="0 0 1024 1024" xmlns="http://www.w3.org/2000/svg" data-type="shape">
    <g>
        <path d="M263.43 192.84v106.4h75.12v292.84h67.75c27.24 0 42.39 70.25 105.71 70.25s78.46-70.25 105.71-70.25h67.75V299.24h75.12v-106.4l-43.44-43.47h-31.67V48.96h-82.74v466.66c0 50.1-40.61 90.71-90.71 90.71s-90.71-40.61-90.71-90.71V48.96h-82.74v100.41h-31.67l-43.44 43.47Zm437.62 7.73c14.54 0 26.33 11.77 26.33 26.31s-11.8 26.33-26.33 26.33-26.33-11.77-26.33-26.33 11.8-26.31 26.33-26.31Zm-351.77 26.31c0 14.56-11.8 26.33-26.33 26.33s-26.33-11.77-26.33-26.33 11.8-26.31 26.33-26.31 26.33 11.77 26.33 26.31Z"/>
        <path d="M512 665.57c-39.79 0-60.87-26.13-77.81-47.12-10.01-12.41-18.66-23.13-27.9-23.13h-67.75a3.24 3.24 0 0 1-3.24-3.24V302.49h-71.87a3.24 3.24 0 0 1-3.24-3.24v-106.4c0-.86.34-1.68.95-2.29l43.44-43.47c.61-.61 1.43-.95 2.29-.95h28.43V48.96a3.24 3.24 0 0 1 3.24-3.24h82.74a3.24 3.24 0 0 1 3.24 3.24v466.66c0 48.23 39.24 87.47 87.47 87.47s87.47-39.24 87.47-87.47V48.96a3.24 3.24 0 0 1 3.24-3.24h82.74a3.24 3.24 0 0 1 3.24 3.24v97.17h28.43c.86 0 1.68.34 2.29.95l43.45 43.47c.61.61.95 1.43.95 2.29v106.4a3.24 3.24 0 0 1-3.24 3.24h-71.87v289.59a3.24 3.24 0 0 1-3.24 3.24H617.7c-9.24 0-17.89 10.72-27.9 23.13-16.94 20.99-38.02 47.12-77.8 47.12Zm-170.22-76.73h64.51c12.34 0 21.89 11.84 32.95 25.54 16.07 19.92 36.07 44.71 72.76 44.71s56.69-24.79 72.76-44.71c11.06-13.7 20.61-25.54 32.95-25.54h64.51V299.25a3.24 3.24 0 0 1 3.24-3.24h71.87V194.19l-41.55-41.57h-30.33a3.24 3.24 0 0 1-3.24-3.24V52.2h-76.26v463.42c0 51.81-42.15 93.95-93.95 93.95s-93.96-42.15-93.96-93.95V52.2h-76.26v97.17a3.24 3.24 0 0 1-3.24 3.24h-30.33l-41.55 41.57V296h71.87a3.24 3.24 0 0 1 3.24 3.24v289.59Zm359.27-332.37c-16.31 0-29.58-13.27-29.58-29.57s13.27-29.55 29.58-29.55 29.57 13.26 29.57 29.55-13.27 29.57-29.57 29.57Zm0-52.65c-12.73 0-23.1 10.35-23.1 23.07s10.36 23.09 23.1 23.09 23.09-10.36 23.09-23.09-10.36-23.07-23.09-23.07Zm-378.11 52.65c-16.31 0-29.58-13.27-29.58-29.57s13.27-29.55 29.58-29.55 29.58 13.26 29.58 29.55-13.27 29.57-29.58 29.57Zm0-52.65c-12.73 0-23.09 10.35-23.09 23.07s10.36 23.09 23.09 23.09 23.1-10.36 23.1-23.09-10.36-23.07-23.1-23.07Z"/>
        <path d="M490.03 691.8v283.18c2.16.04 4.32.06 6.5.06h30.94c2.18 0 4.34-.02 6.5-.06V691.8c-7.11 2.01-14.45 3.13-21.97 3.13s-14.86-1.12-21.97-3.13Z"/>
        <path d="M527.47 978.28h-30.94c-2.2 0-4.38-.02-6.57-.06a3.246 3.246 0 0 1-3.18-3.24V691.8c0-1.01.48-1.97 1.28-2.58a3.24 3.24 0 0 1 2.84-.53c14.14 4 28.04 4 42.18 0a3.23 3.23 0 0 1 4.12 3.11v283.18c0 1.77-1.41 3.2-3.18 3.24-2.18.04-4.36.06-6.57.06Zm-34.2-6.5c1.08.01 2.17.02 3.26.02h30.94c1.09 0 2.18 0 3.26-.02V695.97c-12.56 2.92-24.91 2.92-37.46 0v275.81Z"/>
        <path d="M163.54 149.03c-8.88-5.64-14.76-15.55-14.76-26.85 0-17.59 14.26-31.84 31.84-31.84s31.82 14.26 31.82 31.84c0 13.35-8.21 24.78-19.85 29.51v101.54h39.97v-75.74l54.61-53.34h19.7V48.96H84.73v357.65h78.81V149.03Z"/>
        <path d="M163.53 409.85H84.72a3.24 3.24 0 0 1-3.24-3.24V48.96a3.24 3.24 0 0 1 3.24-3.24h222.15a3.24 3.24 0 0 1 3.24 3.24v75.18a3.24 3.24 0 0 1-3.24 3.24h-18.38l-52.69 51.46v74.38a3.24 3.24 0 0 1-3.24 3.24h-39.97a3.24 3.24 0 0 1-3.24-3.24V151.68c0-1.32.8-2.51 2.02-3 10.83-4.4 17.83-14.8 17.83-26.51 0-15.77-12.82-28.6-28.58-28.6s-28.6 12.83-28.6 28.6c0 9.83 4.95 18.85 13.25 24.12.94.59 1.5 1.63 1.5 2.74v257.58a3.24 3.24 0 0 1-3.24 3.24Zm-75.57-6.48h72.33V150.76c-9.27-6.57-14.75-17.12-14.75-28.58 0-19.35 15.74-35.08 35.08-35.08s35.06 15.74 35.06 35.08c0 13.61-7.72 25.79-19.85 31.62v96.19h33.49v-72.5c0-.87.35-1.71.98-2.32l54.61-53.34c.6-.59 1.42-.92 2.26-.92h16.46V52.2H87.97v351.16Z"/>
        <path d="M163.69 582.96H85.2c8.32 177.02 128.45 324.81 291.37 374.32v-74.55L163.69 669.85v-86.89Z"/>
        <path d="M376.57 960.52c-.32 0-.63-.05-.94-.14C208.19 909.49 90.18 757.87 81.97 583.11c-.04-.88.28-1.75.89-2.39.61-.64 1.46-1 2.34-1h78.49a3.24 3.24 0 0 1 3.24 3.24v85.55l211.93 211.93c.61.61.95 1.43.95 2.29v74.55c0 1.03-.49 1.99-1.31 2.6-.56.42-1.24.64-1.93.64ZM88.61 586.2c9.36 169.14 123.2 315.7 284.72 366.69v-68.81L161.4 672.15c-.61-.61-.95-1.43-.95-2.29v-83.65H88.62Z"/>
        <path d="M400.44 619.01h-93.56V327.64h-74.32v-42.06h-39.97v71.98h70.84v270.89l64.85 64.83c5.31-10.18 15.94-17.11 28.21-17.11 17.59 0 31.84 14.26 31.84 31.84s-14.26 31.84-31.84 31.84-30.85-13.31-31.76-30.05h-20.44l-71.75-71.75V386.37h-39.97v49.49H84.7V552.8h109.31v103.42l124.26 124.26 1.1-.63c5.44-3.07 11.6-4.69 17.87-4.69h124.63v-95.92c-36.47-22.23-61.46-60.25-61.46-60.25Zm-225-96.61c-14.54 0-26.33-11.77-26.33-26.31s11.8-26.33 26.33-26.33 26.33 11.77 26.33 26.33-11.8 26.31-26.33 26.31Z"/>
        <path d="M318.3 783.74a3.2 3.2 0 0 1-2.29-.95L191.75 658.53c-.61-.61-.95-1.43-.95-2.29V556.06H84.73a3.24 3.24 0 0 1-3.24-3.24V435.88a3.24 3.24 0 0 1 3.24-3.24h104.63v-46.25a3.24 3.24 0 0 1 3.24-3.24h39.97a3.24 3.24 0 0 1 3.24 3.24v250.34l69.85 69.85h19.1c1.72 0 3.14 1.35 3.24 3.07.82 15.13 13.35 26.99 28.52 26.99s28.6-12.83 28.6-28.6-12.83-28.6-28.6-28.6c-10.68 0-20.39 5.89-25.34 15.37-.48.91-1.36 1.55-2.38 1.7-1.02.16-2.05-.18-2.78-.91l-64.85-64.83c-.61-.61-.95-1.43-.95-2.29V360.83h-67.6a3.24 3.24 0 0 1-3.24-3.24v-71.98a3.24 3.24 0 0 1 3.24-3.24h39.97a3.24 3.24 0 0 1 3.24 3.24v38.82h71.08a3.24 3.24 0 0 1 3.24 3.24V615.8h90.32c1.09 0 2.11.55 2.71 1.46.25.37 25.05 37.69 60.44 59.27.97.59 1.55 1.64 1.55 2.77v95.92a3.24 3.24 0 0 1-3.24 3.24H337.3c-5.69 0-11.32 1.48-16.28 4.27l-1.09.62c-.5.28-1.05.42-1.6.42ZM197.28 654.9l121.59 121.58a39.75 39.75 0 0 1 18.41-4.53h121.39v-90.87c-32.23-20.2-54.97-51.6-59.94-58.82h-91.85a3.24 3.24 0 0 1-3.24-3.24V330.89h-71.08a3.24 3.24 0 0 1-3.24-3.24v-38.82h-33.49v65.5h67.6a3.24 3.24 0 0 1 3.24 3.24v269.54l60.98 60.96a34.95 34.95 0 0 1 28.85-15.14c19.35 0 35.08 15.74 35.08 35.08s-15.74 35.08-35.08 35.08c-17.58 0-32.26-12.97-34.69-30.05h-17.5c-.86 0-1.68-.34-2.29-.95l-71.75-71.75c-.61-.61-.95-1.43-.95-2.29V389.61h-33.49v46.25a3.24 3.24 0 0 1-3.24 3.24H87.96v110.46h106.07a3.24 3.24 0 0 1 3.24 3.24v102.07Zm-21.84-129.25c-16.31 0-29.58-13.26-29.58-29.55s13.27-29.58 29.58-29.58 29.58 13.27 29.58 29.58-13.27 29.55-29.58 29.55Zm0-52.65c-12.73 0-23.09 10.36-23.09 23.1s10.36 23.07 23.09 23.07 23.09-10.35 23.09-23.07-10.36-23.1-23.09-23.1Z"/>
        <path d="M405.11 867.3v97.54c18.49 4.21 37.46 7.15 56.8 8.75v-170.8h-121.3l64.51 64.51Z"/>
        <path d="M461.9 976.83c-.09 0-.18 0-.27-.01-19.3-1.59-38.56-4.56-57.25-8.82a3.25 3.25 0 0 1-2.52-3.16v-96.2l-63.56-63.56c-.93-.93-1.2-2.32-.7-3.53s1.68-2 2.99-2h121.3a3.24 3.24 0 0 1 3.24 3.24v170.8c0 .91-.38 1.77-1.05 2.38-.6.55-1.39.86-2.2.86Zm-53.56-14.58a404.36 404.36 0 0 0 50.31 7.81V806.04H348.41l58.98 58.98c.61.61.95 1.43.95 2.29v94.95Z"/>
        <path d="M939.27 406.61V48.96H717.12v75.18h19.7l54.61 53.34v150.17h-74.32v291.37h-93.56s-25 38.02-61.46 60.25v95.92h124.63c6.27 0 12.42 1.62 17.87 4.69l1.1.63 124.26-124.26V552.83h109.31V435.89H831.39v-29.27h107.87Zm-90.71 63.15c14.54 0 26.33 11.77 26.33 26.33s-11.8 26.31-26.33 26.31-26.33-11.77-26.33-26.31 11.8-26.33 26.33-26.33Zm-57.12-83.37v251.68l-71.75 71.75h-20.44c-.91 16.74-14.78 30.05-31.76 30.05s-31.84-14.26-31.84-31.84 14.26-31.84 31.84-31.84c12.27 0 22.9 6.93 28.21 17.11l64.85-64.83V377.58l70.84-67.59V151.7c-11.64-4.73-19.85-16.16-19.85-29.51 0-17.59 14.26-31.84 31.82-31.84s31.84 14.26 31.84 31.84c0 11.3-5.88 21.21-14.76 26.85v172.15l-69.02 65.21Z"/>
        <path d="M705.7 783.74c-.55 0-1.1-.14-1.6-.42l-1.1-.63a33.169 33.169 0 0 0-16.26-4.26H562.11a3.24 3.24 0 0 1-3.24-3.24v-95.92c0-1.13.59-2.18 1.55-2.77 35.39-21.57 60.19-58.89 60.44-59.27a3.25 3.25 0 0 1 2.71-1.46h90.32V327.64a3.24 3.24 0 0 1 3.24-3.24h71.08V178.84l-52.69-51.46h-18.38a3.24 3.24 0 0 1-3.24-3.24V48.96a3.24 3.24 0 0 1 3.24-3.24h222.15a3.24 3.24 0 0 1 3.24 3.24v357.65a3.24 3.24 0 0 1-3.24 3.24H834.66v22.79h104.63a3.24 3.24 0 0 1 3.24 3.24v116.94a3.24 3.24 0 0 1-3.24 3.24H833.22v100.18c0 .86-.34 1.68-.95 2.29L708.01 782.79c-.62.62-1.45.95-2.29.95Zm-140.36-11.8h121.39c6.4 0 12.74 1.56 18.41 4.53l121.59-121.58V552.82a3.24 3.24 0 0 1 3.24-3.24h106.07V439.12H831.41a3.24 3.24 0 0 1-3.24-3.24v-29.27a3.24 3.24 0 0 1 3.24-3.24h104.63V52.2H720.37v68.7h16.46c.85 0 1.66.33 2.26.92l54.61 53.34c.62.61.98 1.45.98 2.32v150.17a3.24 3.24 0 0 1-3.24 3.24h-71.08v288.13a3.24 3.24 0 0 1-3.24 3.24h-91.84c-4.97 7.22-27.72 38.62-59.94 58.82v90.87ZM667.5 743.1c-19.35 0-35.08-15.74-35.08-35.08s15.74-35.08 35.08-35.08c11.64 0 22.35 5.7 28.85 15.14l60.98-60.96V377.58c0-.89.36-1.73 1-2.34l69.83-66.63v-154.8c-12.13-5.83-19.85-18.01-19.85-31.62 0-19.35 15.73-35.08 35.06-35.08s35.08 15.74 35.08 35.08c0 11.45-5.48 22.01-14.76 28.58v170.42c0 .89-.37 1.74-1.01 2.36l-68.01 64.25v250.28c0 .86-.34 1.68-.95 2.29l-71.75 71.75c-.61.61-1.43.95-2.29.95h-17.5c-2.43 17.08-17.12 30.05-34.69 30.05Zm0-63.69c-15.77 0-28.6 12.83-28.6 28.6s12.83 28.6 28.6 28.6 27.7-11.85 28.52-26.99a3.24 3.24 0 0 1 3.24-3.07h19.1l69.85-69.85V386.36c0-.89.37-1.74 1.01-2.36l68.01-64.25V149c0-1.11.57-2.14 1.5-2.74 8.3-5.27 13.25-14.28 13.25-24.12 0-15.77-12.83-28.6-28.6-28.6s-28.58 12.83-28.58 28.6c0 11.7 7 22.11 17.83 26.51 1.22.5 2.02 1.68 2.02 3v158.29c0 .89-.36 1.73-1 2.34l-69.83 66.63v249.5c0 .86-.34 1.68-.95 2.29l-64.85 64.83c-.73.73-1.75 1.07-2.78.91-1.02-.16-1.9-.79-2.38-1.7-4.95-9.48-14.66-15.37-25.34-15.37Zm123.94-41.35h.02-.02Zm57.12-112.42c-16.31 0-29.58-13.26-29.58-29.55s13.27-29.58 29.58-29.58 29.57 13.27 29.57 29.58-13.27 29.55-29.57 29.55Zm0-52.65c-12.73 0-23.1 10.36-23.1 23.1s10.36 23.07 23.1 23.07 23.09-10.35 23.09-23.07-10.36-23.1-23.09-23.1Z"/>
        <path d="M860.31 669.85 647.43 882.73v74.55c162.91-49.52 283.05-197.31 291.37-374.32h-78.49v86.89Z"/>
        <path d="M647.43 960.52c-.69 0-1.36-.22-1.93-.64a3.254 3.254 0 0 1-1.31-2.6v-74.55c0-.86.34-1.68.95-2.29l211.93-211.93v-85.55a3.24 3.24 0 0 1 3.24-3.24h78.49c.89 0 1.73.36 2.34 1 .61.64.93 1.5.89 2.39-8.21 174.77-126.22 326.38-293.66 377.27-.31.09-.63.14-.94.14Zm3.24-76.45v68.81c161.52-50.99 275.35-197.54 284.72-366.69h-71.83v83.65c0 .86-.34 1.68-.95 2.29L650.68 884.06Zm209.64-214.22h.02-.02Z"/>
        <path d="M562.1 802.79v170.8c19.34-1.6 38.3-4.54 56.8-8.75V867.3l64.51-64.51h-121.3Z"/>
        <path d="M562.1 976.83c-.81 0-1.59-.3-2.19-.86a3.227 3.227 0 0 1-1.05-2.38v-170.8a3.24 3.24 0 0 1 3.24-3.24h121.3c1.31 0 2.49.79 2.99 2s.22 2.61-.7 3.53l-63.56 63.56v96.2a3.25 3.25 0 0 1-2.52 3.16c-18.69 4.26-37.95 7.22-57.25 8.82-.09 0-.18.01-.27.01Zm3.24-170.8v164.02a404.07 404.07 0 0 0 50.31-7.81v-94.95c0-.86.34-1.68.95-2.29l58.98-58.98H565.34Z"/>
    </g>
</svg>
